<?xml version="1.0" standalone="no"?>
<!DOCTYPE svg PUBLIC "-//W3C//DTD SVG 20010904//EN"
 "http://www.w3.org/TR/2001/REC-SVG-20010904/DTD/svg10.dtd">
<svg version="1.0" xmlns="http://www.w3.org/2000/svg"
 width="400.000000pt" height="297.000000pt" viewBox="0 0 400.000000 297.000000"
 preserveAspectRatio="xMidYMid meet">

<g transform="translate(0.000000,297.000000) scale(0.100000,-0.100000)"
fill="#000000" stroke="none">
<path d="M0 1485 l0 -1485 2000 0 2000 0 0 1485 0 1485 -2000 0 -2000 0 0
-1485z m792 426 c36 -40 40 -77 36 -329 -2 -116 -2 -212 -1 -212 1 0 24 14 50
30 231 147 569 77 735 -152 43 -59 43 -59 58 -37 89 133 218 223 367 254 189
40 363 -13 504 -154 54 -54 85 -95 108 -144 107 -226 67 -463 -108 -638 -87
-86 -166 -131 -276 -154 -94 -20 -157 -19 -247 4 -134 35 -238 103 -317 209
-22 29 -43 53 -46 53 -3 0 -26 -27 -50 -59 -195 -260 -578 -294 -817 -74 -77
71 -128 150 -159 244 l-24 73 0 527 0 526 25 27 c14 15 34 31 45 36 35 15 88
2 117 -30z m1957 -446 c17 -8 83 -87 155 -185 70 -93 128 -170 130 -170 2 0
61 77 131 171 125 166 159 199 207 199 33 0 87 -36 98 -66 23 -59 15 -75 -140
-285 -82 -111 -150 -206 -150 -211 0 -4 68 -99 151 -210 150 -200 151 -202
146 -246 -7 -64 -43 -97 -106 -97 -27 0 -55 6 -65 14 -10 8 -74 91 -143 184
-102 136 -128 166 -138 155 -7 -7 -66 -85 -133 -174 -84 -113 -129 -165 -151
-174 -71 -29 -151 23 -151 100 0 33 15 59 116 196 64 87 131 178 150 203 19
25 32 51 30 58 -3 7 -65 92 -139 190 -152 203 -157 210 -157 253 0 42 15 67
53 90 38 24 68 25 106 5z"/>
<path d="M1090 1247 c-157 -35 -260 -165 -260 -327 0 -136 66 -242 186 -301
57 -28 76 -33 143 -33 134 0 243 69 303 192 28 57 33 76 33 142 -1 131 -71
243 -189 299 -73 36 -142 44 -216 28z"/>
<path d="M2082 1249 c-101 -20 -193 -96 -240 -198 -20 -44 -26 -71 -26 -132 0
-66 5 -86 32 -142 60 -122 169 -191 303 -191 67 0 86 5 143 33 284 140 236
555 -73 627 -62 15 -77 16 -139 3z"/>
</g>
</svg>
