<?xml version="1.0" standalone="no"?>
<!DOCTYPE svg PUBLIC "-//W3C//DTD SVG 20010904//EN"
 "http://www.w3.org/TR/2001/REC-SVG-20010904/DTD/svg10.dtd">
<svg version="1.0" xmlns="http://www.w3.org/2000/svg"
 width="126.000000pt" height="52.000000pt" viewBox="0 0 126.000000 52.000000"
 preserveAspectRatio="xMidYMid meet">

<g transform="translate(0.000000,52.000000) scale(0.100000,-0.100000)"
fill="#000000" stroke="none">
<path d="M87 431 l-89 -48 43 -25 43 -26 -44 -22 -45 -23 43 -20 42 -21 0 -58
0 -58 90 -45 90 -45 90 45 90 45 0 58 c0 53 2 58 30 74 38 21 38 31 0 55 l-30
19 35 18 c19 11 35 23 35 27 0 4 -37 28 -82 52 l-82 45 -42 -24 -41 -24 -44
24 -44 25 -88 -48z m84 -47 c-53 -29 -64 -32 -86 -22 -14 6 -25 14 -25 18 0 4
26 21 57 38 54 29 59 30 86 15 l30 -15 -62 -34z m289 -5 c0 -3 -12 -11 -26
-18 -23 -10 -33 -7 -84 21 l-59 32 26 18 c27 17 28 16 85 -15 32 -17 58 -34
58 -38z m-290 -89 c33 -17 60 -32 60 -35 0 -2 -13 -11 -28 -19 -26 -13 -31
-12 -86 19 l-58 33 23 16 c13 9 25 16 27 16 1 0 29 -14 62 -30z m265 18 c14
-6 25 -14 25 -17 0 -3 -26 -20 -58 -38 -54 -29 -59 -30 -85 -16 -34 17 -35 15
34 53 64 35 53 33 84 18z m-223 -97 l38 19 0 -75 c0 -41 -2 -75 -5 -75 -2 0
-34 14 -70 32 -65 32 -65 32 -65 75 l0 43 32 -20 c31 -19 32 -19 70 1z m166
-1 l32 20 0 -43 c0 -43 0 -43 -65 -75 -36 -18 -68 -32 -70 -32 -3 0 -5 34 -5
75 l0 75 38 -19 c38 -20 39 -20 70 -1z"/>
<path d="M1007 249 c-21 -22 -35 -44 -32 -49 3 -5 28 -8 56 -8 38 1 54 6 66
22 l15 21 -5 -22 c-3 -13 -1 -23 4 -23 5 0 9 6 9 14 0 8 5 18 11 22 8 4 9 0 4
-15 -4 -12 -2 -21 4 -21 6 0 11 9 11 19 0 11 5 23 10 26 7 4 8 -3 4 -20 -5
-20 -3 -26 6 -23 7 2 14 16 14 31 2 26 1 26 -60 24 -52 -2 -65 -6 -83 -27 -23
-28 -26 -18 -10 28 6 17 18 33 27 35 14 4 14 5 2 6 -9 0 -33 -17 -53 -40z m3
-30 c-7 -11 -14 -18 -17 -15 -8 8 5 36 17 36 7 0 7 -6 0 -21z m66 -16 c-11
-11 -19 6 -11 24 8 17 8 17 12 0 3 -10 2 -21 -1 -24z"/>
<path d="M590 265 c-9 -10 -9 -15 -1 -15 6 0 11 5 11 10 0 6 4 10 8 10 4 0 8
-9 8 -19 0 -11 -3 -19 -7 -18 -3 1 -18 -13 -33 -30 -15 -18 -23 -33 -18 -33 5
0 17 11 26 25 18 28 36 33 36 10 0 -8 8 -15 18 -14 9 0 12 3 6 5 -8 3 -10 20
-7 44 5 35 3 40 -14 40 -12 0 -26 -7 -33 -15z"/>
<path d="M654 238 c-3 -4 0 -8 6 -8 7 0 9 -8 5 -21 -5 -15 -4 -19 4 -15 6 4
11 14 11 22 0 8 7 14 16 14 11 0 15 -6 11 -20 -3 -11 -1 -20 4 -20 5 0 9 6 9
14 0 8 5 18 11 22 8 4 9 0 4 -15 -4 -12 -2 -21 4 -21 6 0 11 9 11 19 0 11 5
23 10 26 7 4 9 -2 5 -18 -6 -21 -3 -24 18 -24 16 0 24 4 21 12 -3 6 2 18 11
25 15 12 15 10 9 -15 -6 -24 -4 -27 10 -22 13 5 15 2 10 -18 -5 -21 -2 -25 15
-25 23 0 35 19 44 68 8 39 -6 42 -41 10 l-25 -23 6 23 c4 16 1 22 -13 22 -10
0 -25 -10 -34 -22 l-17 -23 4 22 c5 20 1 22 -59 21 -36 -1 -67 -5 -70 -10z
m227 -31 c-8 -8 -11 -7 -11 4 0 20 13 34 18 19 3 -7 -1 -17 -7 -23z m-1 -26
c0 -12 -20 -25 -27 -18 -7 7 6 27 18 27 5 0 9 -4 9 -9z"/>
<path d="M932 238 c-17 -17 -15 -48 2 -48 8 0 18 4 21 10 4 6 -1 7 -12 4 -14
-4 -12 -1 5 13 13 10 20 22 16 26 -10 10 -18 9 -32 -5z"/>
</g>
</svg>
