<?xml version="1.0" standalone="no"?>
<!DOCTYPE svg PUBLIC "-//W3C//DTD SVG 20010904//EN"
 "http://www.w3.org/TR/2001/REC-SVG-20010904/DTD/svg10.dtd">
<svg version="1.0" xmlns="http://www.w3.org/2000/svg"
 width="512.000000pt" height="512.000000pt" viewBox="0 0 512.000000 512.000000"
 preserveAspectRatio="xMidYMid meet">

<g transform="translate(0.000000,512.000000) scale(0.100000,-0.100000)"
fill="#000000" stroke="none">
<path d="M853 4237 c-469 -254 -851 -466 -849 -472 1 -5 188 -113 414 -240
311 -173 409 -232 398 -240 -7 -5 -192 -107 -410 -225 -217 -118 -396 -217
-396 -220 0 -3 184 -104 410 -225 l410 -220 0 -558 0 -559 865 -429 864 -429
866 429 865 429 2 558 3 558 412 220 c227 122 412 223 412 226 0 3 -184 104
-409 225 -336 181 -406 222 -393 232 8 6 192 110 409 230 216 120 394 221 394
225 0 8 54 -21 -917 507 l-793 432 -419 -230 -420 -230 -422 230 c-232 127
-427 233 -433 235 -6 2 -394 -204 -863 -459z m1157 24 c282 -154 291 -160 269
-174 -22 -14 -1106 -595 -1176 -631 l-32 -16 -291 161 -290 162 522 284 c288
156 559 304 603 328 44 25 85 44 92 45 6 0 143 -72 303 -159z m2014 -181 c328
-178 596 -327 596 -330 0 -3 -129 -76 -287 -164 l-286 -158 -37 18 c-221 111
-1187 641 -1181 647 21 21 568 315 582 314 9 -1 285 -148 613 -327z m368
-1118 c184 -99 215 -119 201 -129 -8 -7 -285 -156 -614 -333 l-597 -321 -249
137 c-136 75 -268 147 -291 161 l-44 25 609 332 608 332 80 -43 c44 -24 178
-96 297 -161z m-2667 -129 c333 -180 605 -330 605 -333 0 -3 -133 -76 -294
-163 l-294 -157 -611 327 c-336 181 -611 330 -611 333 0 8 573 320 587 320 7
0 285 -147 618 -327z m715 -1313 l0 -770 -685 342 -685 343 0 412 c0 227 2
413 5 413 4 0 116 -59 590 -315 l80 -43 345 193 c190 106 346 194 348 194 1 1
2 -345 2 -769z m642 547 l296 -165 214 115 c117 63 268 143 336 179 l122 66 0
-414 0 -413 -685 -343 -685 -342 0 771 0 770 53 -29 c28 -17 185 -104 349
-195z"/>
</g>
</svg>
